<?xml version="1.0" standalone="no"?>
<!DOCTYPE svg PUBLIC "-//W3C//DTD SVG 20010904//EN"
 "http://www.w3.org/TR/2001/REC-SVG-20010904/DTD/svg10.dtd">
<svg version="1.0" xmlns="http://www.w3.org/2000/svg"
 width="700.000000pt" height="700.000000pt" viewBox="0 0 700.000000 700.000000"
 preserveAspectRatio="xMidYMid meet">
<metadata>
Created by potrace 1.14, written by Peter Selinger 2001-2017
</metadata>
<g transform="translate(0.000000,700.000000) scale(0.100000,-0.100000)"
fill="#000000" stroke="none">
<path d="M3397 6975 c-1 -1 -56 -5 -122 -8 -66 -4 -131 -9 -145 -11 -14 -2
-63 -9 -110 -15 -106 -14 -174 -27 -350 -66 -91 -20 -245 -68 -389 -121 -107
-40 -120 -46 -278 -120 -526 -247 -1009 -655 -1349 -1140 -314 -449 -528 -992
-595 -1514 -6 -47 -12 -96 -15 -110 -23 -132 -22 -552 2 -765 13 -115 55 -340
90 -479 163 -647 547 -1274 1053 -1719 654 -576 1438 -876 2301 -880 115 -1
337 9 375 17 11 2 51 7 89 10 38 4 72 9 75 10 3 2 29 7 56 11 132 17 485 109
590 154 11 5 58 23 105 41 426 165 841 439 1185 785 460 461 774 1029 919
1660 19 83 37 168 41 190 64 429 66 730 10 1115 -8 52 -17 106 -20 120 -2 14
-10 50 -16 80 -49 242 -163 573 -279 810 -274 557 -669 1006 -1198 1363 -63
43 -115 77 -117 77 -2 0 -48 26 -102 57 -330 191 -744 337 -1123 399 -14 2
-38 6 -55 9 -16 3 -50 7 -75 10 -25 4 -59 8 -76 10 -83 11 -467 27 -477 20z"/>
</g>
</svg>
